<svg width="126" height="212" viewBox="0 0 126 212" fill="none" xmlns="http://www.w3.org/2000/svg">
<path d="M125.018 49.8438C125.267 50.0098 125.511 50.1806 125.76 50.3466C126.195 69.3066 125.833 89.5214 125.819 108.574C121.014 105.42 114.432 101.855 109.364 99.0527L1.13715 161.567L0.724056 161.494C-0.0239911 160.239 0.327561 109.541 0.335374 102.891L16.7089 112.334C52.2787 92.7685 89.6615 70.2686 125.018 49.8438Z" fill="#EDEDED"/>
<path d="M125.004 108.932L125.287 108.976C126.42 110.465 125.849 143.727 125.858 148.522L17.6532 211.046L17.078 210.904C16.1947 209.083 16.5883 176.3 16.5956 171.583C27.6986 164.439 43.534 155.919 55.1942 149.176L125.004 108.932Z" fill="#EDEDED"/>
<path d="M109.138 0C109.509 2.09473 109.358 10.9131 109.348 13.5791C109.27 22.378 109.279 31.1816 109.377 39.9805L0.619757 102.69C-0.538446 98.6426 0.279919 68.5596 0.290173 62.7295L109.138 0Z" fill="#EDEDED"/>
</svg>
